<svg width="87" height="28" viewBox="0 0 87 28" fill="none" xmlns="http://www.w3.org/2000/svg">
<path d="M10.0563 27.5561C4.74635 27.5561 0.665344 22.8567 1.40969 17.5992L3.55089 2.4754C3.75192 1.05547 4.96734 0 6.40143 0C8.15168 0 9.49699 1.5488 9.25208 3.28183L7.35344 16.7167C6.91716 19.8038 9.31362 22.5627 12.4314 22.5627H15.4655C16.9847 22.5627 18.1518 23.9082 17.9371 25.4122C17.7615 26.6424 16.7081 27.5561 15.4655 27.5561H10.0563Z" fill="white"/>
<path d="M27.7174 28C26.0168 28 24.6038 27.6301 23.4785 26.8904C22.3781 26.1506 21.6028 25.1149 21.1527 23.7834C20.7275 22.4518 20.64 20.886 20.8901 19.0859L22.2336 9.75408C22.4313 8.38036 23.6084 7.36064 24.9963 7.36064C26.6916 7.36064 27.9954 8.85956 27.7605 10.5385L26.5545 19.1598C26.4545 19.9243 26.517 20.6024 26.7421 21.1942C26.9672 21.7613 27.3423 22.2052 27.8675 22.5258C28.3927 22.8463 29.0179 23.0066 29.7431 23.0066C30.4934 23.0066 31.1686 22.8463 31.7688 22.5258C32.369 22.2052 32.8692 21.7613 33.2694 21.1942C33.6945 20.6024 33.9571 19.9243 34.0571 19.1598L35.3722 9.75923C35.5646 8.38392 36.7409 7.36064 38.1296 7.36064C39.8222 7.36064 41.1232 8.85824 40.8866 10.5342L38.8011 25.3072C38.619 26.5971 37.5151 27.5561 36.2124 27.5561H33.8991C33.5455 27.5561 33.2727 27.2451 33.3188 26.8946L33.627 24.5502C33.6524 24.3572 33.9275 24.3457 33.9688 24.536C33.9774 24.5755 33.9719 24.6169 33.9531 24.6526C33.3303 25.8322 32.4771 26.6891 31.3937 27.2232C30.2933 27.7411 29.0679 28 27.7174 28Z" fill="white"/>
<path d="M80.6623 27.5561C78.9576 27.5561 77.6471 26.0477 77.8854 24.3597L79.9446 9.77305C80.1399 8.38938 81.3241 7.36064 82.7215 7.36064C84.4263 7.36064 85.7367 8.86905 85.4984 10.5571L83.4392 25.1437C83.2439 26.5274 82.0597 27.5561 80.6623 27.5561ZM83.7436 5.54822C82.0564 5.54822 80.7598 4.05461 80.997 2.38414C81.1912 1.01642 82.3621 0 83.7436 0H83.8042C85.4914 0 86.7879 1.49361 86.5507 3.16408C86.3565 4.5318 85.1856 5.54822 83.8042 5.54822H83.7436Z" fill="white"/>
<path d="M73.6525 17.6192C74.4681 18.3075 74.8498 19.3819 74.6511 20.4305L73.9078 24.3548C73.6671 25.6254 72.5567 26.5453 71.2635 26.5453H69.6993C68.8991 26.5453 68.2822 25.8403 68.3884 25.0471L68.7255 22.5288C68.7637 22.2434 69.1314 22.152 69.2988 22.3863C69.3621 22.4749 69.3759 22.5899 69.3334 22.6901C68.6839 24.2221 67.822 25.3177 66.7479 25.9769C65.6363 26.659 64.3101 27 62.7691 27C61.0512 27 59.5986 26.5579 58.4113 25.6737C57.4404 24.9714 56.7482 24.0663 56.3348 22.9586C56.187 22.5628 56.4827 22.1592 56.9041 22.1279C57.4425 22.0881 57.8074 22.6558 57.5066 23.1042C56.6738 24.3459 55.6996 25.2656 54.584 25.8632C53.1694 26.6211 51.6031 27 49.8853 27C48.3442 27 47.3427 26.5453 46.2564 25.8632C45.4202 25.3381 44.702 24.0719 44.1852 22.9636C43.9004 22.3528 43.6762 21.7049 43.6229 21.0331C43.566 20.3152 43.823 20.689 43.6722 19.768C43.6078 19.3749 43.5659 18.9759 43.5833 18.5779L43.6719 16.5606C43.7311 15.2095 44.8438 14.1446 46.1962 14.1446C47.8493 14.1446 49.0571 15.7056 48.6422 17.3057L48.4768 17.9434C48.3505 18.7518 48.8621 19.4466 49.0895 20.0276C49.2916 20.6086 49.6326 21.0633 50.1126 21.3918C50.5926 21.7202 51.2115 21.8844 51.9694 21.8844C52.702 21.8844 53.3715 21.7202 53.9778 21.3918C54.5588 21.0633 55.0388 20.6086 55.4177 20.0276C55.8068 19.2302 56.0538 18.4966 56.1377 17.9434L56.3459 16.434C56.5269 15.1219 57.6482 14.1446 58.9728 14.1446C60.5666 14.1446 61.8003 15.5406 61.6044 17.1224L61.5027 17.9434C61.3764 18.7518 61.7459 19.4466 61.9733 20.0276C62.1754 20.6086 62.5164 21.0633 62.9964 21.3918C63.4764 21.7202 64.0953 21.8844 64.8532 21.8844C65.5858 21.8844 66.2553 21.7202 66.8616 21.3918C67.4426 21.0633 67.9226 20.6086 68.3015 20.0276C68.6552 19.4466 68.8952 18.7518 69.0215 17.9434C69.2439 16.2978 71.1954 15.5458 72.4646 16.6168L73.6525 17.6192Z" fill="white" fill-opacity="0.62"/>
<path d="M71.9907 22.8554C73.6967 22.8554 75.0091 21.3477 74.7739 19.658L73.8091 12.7266C73.6278 11.4241 72.5141 10.4547 71.1992 10.4547H69.6993C68.8991 10.4547 68.2822 11.1597 68.3884 11.9529L68.7255 14.4712C68.7637 14.7566 69.1314 14.848 69.2988 14.6137C69.3621 14.5251 69.3759 14.4101 69.3334 14.3099C68.6839 12.7779 67.822 11.6823 66.7479 11.0231C65.6363 10.341 64.31 10 62.769 10C61.0512 10 59.5986 10.4421 58.4113 11.3263C57.4404 12.0286 56.7482 12.9337 56.3347 14.0414C56.187 14.4372 56.4827 14.8408 56.9041 14.8721C57.4425 14.9119 57.8073 14.3442 57.5066 13.8958C56.6738 12.6541 55.6996 11.7344 54.584 11.1368C53.1693 10.3789 51.6031 10 49.8852 10C48.3442 10 47.0306 10.341 45.9443 11.0231C44.858 11.7052 44.0623 12.6525 43.557 13.8651C43.0265 15.0525 42.8749 16.4293 43.1023 17.9955L43.4402 20.4266C43.6338 21.8189 44.8243 22.8554 46.2301 22.8554C47.9387 22.8554 49.2538 21.3464 49.0203 19.6539L48.9379 19.0566C48.8116 18.2482 48.8621 17.5534 49.0895 16.9724C49.2916 16.3914 49.6326 15.9367 50.1126 15.6082C50.5926 15.2798 51.2115 15.1156 51.9694 15.1156C52.702 15.1156 53.3714 15.2798 53.9777 15.6082C54.5588 15.9367 55.0388 16.3914 55.4177 16.9724C55.7675 17.5471 55.7017 19.1116 56.1951 18.6541C56.265 18.5892 56.355 18.4731 56.4699 18.2892C56.9831 17.4681 58.564 17.4299 59.4851 17.4836C59.9344 17.5098 60.3505 17.7066 60.6892 18.003L61.3275 18.5615C61.345 18.5768 61.3674 18.5852 61.3907 18.5852C61.4495 18.5852 61.4942 18.5323 61.4879 18.4738C61.4112 17.7548 61.7567 17.5258 61.9733 16.9724C62.1754 16.3914 62.5164 15.9367 62.9964 15.6082C63.4764 15.2798 64.0953 15.1156 64.8532 15.1156C65.5858 15.1156 66.2552 15.2798 66.8615 15.6082C67.4426 15.9367 67.9226 16.3914 68.3015 16.9724C68.6552 17.5534 68.8952 18.2482 69.0215 19.0566L69.206 20.4217C69.3944 21.8155 70.5842 22.8554 71.9907 22.8554Z" fill="white"/>
</svg>
